<svg width="175" height="33" viewBox="0 0 175 33" fill="none" xmlns="http://www.w3.org/2000/svg">
<g clip-path="url(#clip0_8802_26)">
<path fill-rule="evenodd" clip-rule="evenodd" d="M3.12878 10.156L10.6815 17.7738L10.9018 18.0008C14.8527 22.2224 14.7796 28.8752 10.6823 33.0069L3.12878 25.3899L2.90929 25.1621C-1.0416 20.9404 -0.968433 14.2876 3.12878 10.156ZM13.2002 -7.62939e-06L20.7537 7.61696L20.9732 7.8448C24.9241 12.0665 24.851 18.7193 20.7537 22.8509L13.2002 15.2339L12.9807 15.0061C9.02981 10.7844 9.10297 4.13161 13.2002 -7.62939e-06Z" fill="#060D20"/>
<path fill-rule="evenodd" clip-rule="evenodd" d="M46.0004 25.1099V18.3466H53.2898V25.1099H56.9226V9.04723H53.2898V15.4723H46.0004V9.04723H42.3916V25.1099H46.0004ZM61.7025 29.9407C65.1441 29.9407 66.1717 28.419 67.1516 25.4722L71.3341 13.0327H67.9642L65.407 20.5688L64.8573 22.5495L64.2359 20.5688L61.6069 13.0327H57.9981L62.0849 24.8925H64.1164L63.3277 27.1147H58.7151V29.9407H61.7025ZM75.5404 29.9407V23.3466C76.3769 24.6992 77.7392 25.4963 79.7945 25.4963C83.7141 25.4963 85.3154 22.5012 85.3154 19.0713C85.3154 15.5931 83.7141 12.6462 79.7945 12.6462C77.7392 12.6462 76.3769 13.4433 75.5404 14.7718V13.0327H72.0033V29.9407H75.5404ZM78.7191 22.6944C76.4725 22.6944 75.5404 21.535 75.5404 19.0713C75.5404 16.6075 76.4725 15.4481 78.7191 15.4481C80.9656 15.4481 81.7543 16.5592 81.7543 19.0713C81.7543 21.5592 80.9656 22.6944 78.7191 22.6944ZM92.7004 25.4963C97.0023 25.4963 98.5319 23.3949 98.8665 21.4626H95.4727C95.1381 22.3563 94.3255 23.0326 92.772 23.0326C91.0752 23.0326 89.9519 22.2838 89.7368 19.9891H98.8426C98.8904 19.7234 98.8904 19.3853 98.8904 19.023C98.8904 15.6172 97.2174 12.6462 92.7004 12.6462C88.2789 12.6462 86.2713 15.5447 86.2713 19.0471C86.2713 22.4529 88.0399 25.4963 92.7004 25.4963ZM95.5205 17.8152H89.7607C90.0475 15.7621 91.0513 15.0617 92.7481 15.0617C94.5167 15.0617 95.401 15.9795 95.5205 17.8152ZM117.054 25.1099V22.1872H109.621V9.04723H105.965V25.1099H117.054ZM123.794 25.4963C128.096 25.4963 129.625 23.3949 129.96 21.4626H126.566C126.232 22.3563 125.419 23.0326 123.865 23.0326C122.169 23.0326 121.045 22.2838 120.83 19.9891H129.936C129.984 19.7234 129.984 19.3853 129.984 19.023C129.984 15.6172 128.311 12.6462 123.794 12.6462C119.372 12.6462 117.365 15.5447 117.365 19.0471C117.365 22.4529 119.133 25.4963 123.794 25.4963ZM126.614 17.8152H120.854C121.141 15.7621 122.145 15.0617 123.842 15.0617C125.61 15.0617 126.494 15.9795 126.614 17.8152ZM137.512 30.2064C142.364 30.2064 144.204 28.3224 144.204 24.6268V13.0327H140.667V14.6269C139.854 13.395 138.516 12.6704 136.508 12.6704C132.613 12.6704 130.94 15.3515 130.94 18.7331C130.94 22.0423 132.613 24.7475 136.508 24.7475C138.516 24.7475 139.854 24.0712 140.667 22.8393V25.0374C140.667 26.9456 139.735 27.6944 137.656 27.6944C135.672 27.6944 134.835 26.8731 134.692 25.6412H131.227C131.394 28.3465 133.425 30.2064 137.512 30.2064ZM137.632 22.1147C135.385 22.1147 134.477 21.1969 134.477 18.7814C134.477 16.366 135.385 15.4481 137.632 15.4481C139.83 15.4481 140.667 16.4868 140.667 18.7814C140.667 21.0519 139.83 22.1147 137.632 22.1147ZM149.844 25.4239C152.282 25.4239 153.716 24.192 154.266 22.5253C154.266 23.5157 154.338 24.3128 154.457 25.1099H157.54C157.421 24.0712 157.349 23.105 157.349 21.9698V16.7525C157.349 14.1921 155.58 12.6221 151.948 12.6221C148.315 12.6221 146.212 14.3853 146.116 16.9698H149.582C149.629 15.738 150.394 15.0858 152.019 15.0858C153.621 15.0858 154.099 15.6414 154.099 16.4868C154.099 17.1872 153.716 17.5012 152.617 17.6945L149.797 18.1776C146.714 18.709 145.877 19.965 145.877 21.8973C145.877 24.0712 147.431 25.4239 149.844 25.4239ZM151.039 22.9843C150.083 22.9843 149.366 22.5012 149.366 21.535C149.366 20.6171 149.868 20.1582 151.135 19.8442L152.139 19.6027C152.88 19.4336 153.477 19.2645 154.099 18.8297V19.3611C154.099 21.6075 152.904 22.9843 151.039 22.9843ZM162.822 25.1099V8.20183H159.285V25.1099H162.822ZM170.998 8.20183L172.684 10.3685L174.384 8.20183H175V12.3277H174.311V9.35214L172.728 11.2966H172.595L171.041 9.29188V12.3277H170.352V8.20183H170.998ZM165.559 8.79105V8.20183H169.561V8.79105H167.89V12.3277H167.201V8.79105H165.559Z" fill="#060D20"/>
</g>
<defs>
<clipPath id="clip0_8802_26">
<rect width="175" height="33.0069" fill="white"/>
</clipPath>
</defs>
</svg>
