<svg width="37" height="51" viewBox="0 0 37 51" fill="none" xmlns="http://www.w3.org/2000/svg">
<path fill-rule="evenodd" clip-rule="evenodd" d="M4.84871 15.5323L16.5498 27.1773L16.8912 27.5249C19.8449 30.6457 21.4604 34.7826 21.3967 39.0623C21.333 43.3421 19.5951 47.4299 16.5498 50.4629L4.84871 38.8201L4.50729 38.4703C1.5536 35.3495 -0.061888 31.2126 0.00181484 26.9328C0.0655177 22.653 1.80343 18.5653 4.84871 15.5323ZM20.4502 0.0078125L32.1536 11.6506L32.4927 12.0004C35.4462 15.1212 37.0617 19.2578 36.9984 23.5374C36.9352 27.817 35.198 31.9049 32.1536 34.9384L20.4502 23.2956L20.111 22.9458C17.1576 19.825 15.542 15.6884 15.6053 11.4088C15.6686 7.12921 17.4057 3.04136 20.4502 0.0078125Z" fill="white"/>
</svg>
